<svg width="16" height="17" viewBox="0 0 16 17" fill="none" xmlns="http://www.w3.org/2000/svg">
  <path d="M15 13.5H14V7.72191C14 7.58351 13.9713 7.44661 13.9157 7.31988C13.8601 7.19315 13.7788 7.07934 13.6769 6.98566L8.67688 2.26816C8.67443 2.26603 8.67213 2.26373 8.67 2.26129C8.48591 2.09387 8.24602 2.0011 7.99719 2.0011C7.74836 2.0011 7.50846 2.09387 7.32438 2.26129L7.3175 2.26816L2.32312 6.98566C2.22125 7.07934 2.13993 7.19315 2.08431 7.31988C2.02869 7.44661 1.99998 7.58351 2 7.72191V13.5H1C0.867392 13.5 0.740215 13.5527 0.646447 13.6465C0.552678 13.7402 0.5 13.8674 0.5 14C0.5 14.1326 0.552678 14.2598 0.646447 14.3536C0.740215 14.4474 0.867392 14.5 1 14.5H15C15.1326 14.5 15.2598 14.4474 15.3536 14.3536C15.4473 14.2598 15.5 14.1326 15.5 14C15.5 13.8674 15.4473 13.7402 15.3536 13.6465C15.2598 13.5527 15.1326 13.5 15 13.5ZM9.5 13.5H6.5V10.5C6.5 10.3674 6.55268 10.2402 6.64645 10.1465C6.74021 10.0527 6.86739 10 7 10H9C9.13261 10 9.25979 10.0527 9.35355 10.1465C9.44732 10.2402 9.5 10.3674 9.5 10.5V13.5Z" fill="#F0F2F5"/>
</svg>