<svg width="16" height="17" viewBox="0 0 16 17" fill="none" xmlns="http://www.w3.org/2000/svg">
  <path d="M4.00653 9.73747C4.00823 9.77134 4.00301 9.8052 3.99121 9.83699C3.97941 9.86878 3.96126 9.89783 3.93788 9.92239C3.91449 9.94694 3.88635 9.96648 3.85518 9.97982C3.824 9.99316 3.79044 10 3.75653 9.99997H0.99903C0.886177 10.0001 0.776586 9.96213 0.688076 9.89212C0.599567 9.82211 0.537345 9.72421 0.51153 9.61435C0.495456 9.53915 0.496197 9.46133 0.5137 9.38646C0.531204 9.31158 0.565037 9.2415 0.61278 9.18122C1.05391 8.59621 1.63921 8.13559 2.31153 7.84435C2.01636 7.57523 1.78997 7.23929 1.65133 6.86468C1.51268 6.49008 1.46582 6.0877 1.51466 5.69126C1.56351 5.29481 1.70663 4.91584 1.93205 4.58609C2.15748 4.25633 2.45863 3.98539 2.8103 3.79596C3.16196 3.60653 3.5539 3.50412 3.95328 3.49731C4.35267 3.4905 4.74787 3.57949 5.10579 3.75682C5.46371 3.93416 5.77392 4.19467 6.01046 4.51655C6.24699 4.83843 6.40295 5.2123 6.46528 5.60685C6.47333 5.65991 6.46382 5.71414 6.43821 5.7613C6.4126 5.80846 6.37229 5.84596 6.3234 5.8681C5.6299 6.18871 5.04257 6.701 4.63072 7.34452C4.21887 7.98804 3.99969 8.73594 3.99903 9.49997C3.99903 9.57997 3.99903 9.65872 4.00653 9.73747ZM15.3815 9.1806C14.9414 8.59626 14.3575 8.1359 13.6865 7.84435C13.9817 7.57523 14.2081 7.23929 14.3467 6.86468C14.4854 6.49008 14.5322 6.0877 14.4834 5.69126C14.4346 5.29481 14.2914 4.91584 14.066 4.58609C13.8406 4.25633 13.5394 3.98539 13.1878 3.79596C12.8361 3.60653 12.4442 3.50412 12.0448 3.49731C11.6454 3.4905 11.2502 3.57949 10.8923 3.75682C10.5344 3.93416 10.2241 4.19467 9.9876 4.51655C9.75107 4.83843 9.59511 5.2123 9.53278 5.60685C9.52473 5.65991 9.53424 5.71414 9.55984 5.7613C9.58546 5.80846 9.62577 5.84596 9.67465 5.8681C10.3682 6.18871 10.9555 6.701 11.3673 7.34452C11.7792 7.98804 11.9984 8.73594 11.999 9.49997C11.999 9.57997 11.999 9.65872 11.9915 9.73747C11.9898 9.77134 11.995 9.8052 12.0068 9.83699C12.0187 9.86878 12.0368 9.89783 12.0602 9.92239C12.0836 9.94694 12.1117 9.96648 12.1429 9.97982C12.1741 9.99316 12.2076 10 12.2415 9.99997H14.999C15.1119 10.0001 15.2215 9.96213 15.31 9.89212C15.3985 9.82211 15.4607 9.72421 15.4865 9.61435C15.5027 9.53902 15.502 9.46103 15.4843 9.38602C15.4667 9.31102 15.4327 9.24085 15.3847 9.1806H15.3815ZM9.81903 11.8793C10.3169 11.4981 10.6827 10.9704 10.8652 10.3704C11.0476 9.77051 11.0375 9.12848 10.8362 8.53459C10.6349 7.94071 10.2526 7.42483 9.74297 7.05945C9.23334 6.69408 8.62204 6.49759 7.99497 6.49759C7.3679 6.49759 6.75659 6.69408 6.24697 7.05945C5.73734 7.42483 5.35501 7.94071 5.15373 8.53459C4.95244 9.12848 4.94231 9.77051 5.12476 10.3704C5.30721 10.9704 5.67306 11.4981 6.1709 11.8793C5.28749 12.2621 4.54982 12.9177 4.06591 13.75C4.02202 13.826 3.99891 13.9122 3.99892 14C3.99892 14.0878 4.02204 14.174 4.06593 14.25C4.10983 14.326 4.17297 14.3892 4.24899 14.433C4.32502 14.4769 4.41125 14.5 4.49903 14.5H11.499C11.5868 14.5 11.673 14.4769 11.7491 14.433C11.8251 14.3892 11.8882 14.326 11.9321 14.25C11.976 14.174 11.9991 14.0878 11.9991 14C11.9991 13.9122 11.976 13.826 11.9322 13.75C11.4472 12.9171 10.7082 12.2615 9.8234 11.8793H9.81903Z" fill="white"/>
</svg>