<svg width="62" height="63" viewBox="0 0 62 63" fill="none" xmlns="http://www.w3.org/2000/svg">
  <path d="M50.1447 8.39648C51.1982 8.57812 52.5908 9.01406 53.4748 9.41367C57.6404 11.3391 60.5345 15.3473 61.6486 20.6996C62.0119 22.4555 62.0966 26.4273 61.8181 28.6313C60.7767 36.8898 56.0541 43.7074 48.3646 48.0426C45.9064 49.423 42.9154 50.5855 39.9365 51.3121C38.0474 51.7723 35.565 52.2324 34.9232 52.2324C34.0877 52.2324 33.5427 51.7117 33.5427 50.9125C33.5427 50.1617 33.7365 49.968 35.5045 49.084C40.4935 46.541 43.3755 43.5016 43.8357 40.2805C44.0537 38.7184 43.533 36.9504 42.5763 35.9816C42.0556 35.4488 41.6681 35.2309 40.6994 34.9281C37.4056 33.8988 34.8263 30.4477 33.8455 25.7734C33.567 24.4535 33.4822 21.9105 33.6517 20.5906C34.0877 17.3695 35.6013 14.4027 37.9869 12.1383C39.1978 10.9879 40.1302 10.3461 41.7166 9.58321C43.7146 8.63867 44.9377 8.37227 47.4685 8.32383C48.631 8.31172 49.842 8.33594 50.1447 8.39648Z" fill="#A4B0C1"/>
  <path d="M19.0548 8.39648C20.1084 8.57812 21.5009 9.01406 22.3849 9.41367C26.5505 11.3391 29.4447 15.3473 30.5587 20.6996C30.922 22.4555 31.0068 26.4273 30.7283 28.6313C29.6869 36.8898 24.9642 43.7074 17.2748 48.0426C14.8166 49.423 11.8255 50.5855 8.84664 51.3121C6.95758 51.7723 4.47516 52.2324 3.83336 52.2324C2.99781 52.2324 2.45289 51.7117 2.45289 50.9125C2.45289 50.1617 2.64664 49.968 4.41461 49.084C9.40367 46.541 12.2857 43.5016 12.7459 40.2805C12.9638 38.7184 12.4431 36.9504 11.4865 35.9816C10.9658 35.4488 10.5783 35.2309 9.60953 34.9281C6.31578 33.8988 3.73648 30.4477 2.75562 25.7734C2.47711 24.4535 2.39234 21.9105 2.56187 20.5906C2.99781 17.3695 4.51148 14.4027 6.89703 12.1383C8.10797 10.9879 9.04039 10.3461 10.6267 9.58321C12.6248 8.63867 13.8478 8.37227 16.3787 8.32383C17.5412 8.31172 18.7521 8.33594 19.0548 8.39648Z" fill="#A4B0C1"/>
</svg>