<svg width="62" height="63" viewBox="0 0 62 63" fill="none" xmlns="http://www.w3.org/2000/svg">
  <path d="M11.8553 54.6543C10.8018 54.4727 9.40922 54.0367 8.52523 53.6371C4.35961 51.7117 1.46547 47.7035 0.351406 42.3512C-0.0118749 40.5953 -0.0966405 36.6234 0.181875 34.4195C1.22328 26.1609 5.94594 19.3434 13.6354 15.0082C16.0936 13.6277 19.0846 12.4652 22.0635 11.7387C23.9526 11.2785 26.435 10.8184 27.0768 10.8184C27.9123 10.8184 28.4573 11.3391 28.4573 12.1383C28.4573 12.8891 28.2635 13.0828 26.4955 13.9668C21.5065 16.5098 18.6245 19.5492 18.1643 22.7703C17.9463 24.3324 18.467 26.1004 19.4237 27.0691C19.9444 27.602 20.3319 27.8199 21.3006 28.1227C24.5944 29.152 27.1737 32.6031 28.1545 37.2773C28.433 38.5973 28.5178 41.1402 28.3483 42.4602C27.9123 45.6812 26.3987 48.648 24.0131 50.9125C22.8022 52.0629 21.8698 52.7047 20.2834 53.4676C18.2854 54.4121 17.0623 54.6785 14.5315 54.727C13.369 54.7391 12.158 54.7148 11.8553 54.6543Z" fill="#A4B0C1"/>
  <path d="M42.9452 54.6543C41.8916 54.4727 40.4991 54.0367 39.6151 53.6371C35.4495 51.7117 32.5553 47.7035 31.4413 42.3512C31.078 40.5953 30.9932 36.6234 31.2717 34.4195C32.3131 26.1609 37.0358 19.3434 44.7252 15.0082C47.1834 13.6277 50.1745 12.4652 53.1534 11.7387C55.0424 11.2785 57.5248 10.8184 58.1666 10.8184C59.0022 10.8184 59.5471 11.3391 59.5471 12.1383C59.5471 12.8891 59.3534 13.0828 57.5854 13.9668C52.5963 16.5098 49.7143 19.5492 49.2541 22.7703C49.0362 24.3324 49.5569 26.1004 50.5135 27.0691C51.0342 27.602 51.4217 27.8199 52.3905 28.1227C55.6842 29.152 58.2635 32.6031 59.2444 37.2773C59.5229 38.5973 59.6077 41.1402 59.4381 42.4602C59.0022 45.6812 57.4885 48.648 55.103 50.9125C53.892 52.0629 52.9596 52.7047 51.3733 53.4676C49.3752 54.4121 48.1522 54.6785 45.6213 54.727C44.4588 54.7391 43.2479 54.7148 42.9452 54.6543Z" fill="#A4B0C1"/>
</svg>