<svg width="22" height="23" viewBox="0 0 22 23" fill="none" xmlns="http://www.w3.org/2000/svg">
<g id="circle-xmark 1" clip-path="url(#clip0_1019_168)">
<path id="Vector" d="M11 0.5C4.93442 0.5 0 5.43442 0 11.5C0 17.5656 4.93442 22.5 11 22.5C17.0656 22.5 22 17.5656 22 11.5C22 5.43442 17.0656 0.5 11 0.5ZM14.3981 13.6019C14.7565 13.9603 14.7565 14.5397 14.3981 14.8981C14.2193 15.0768 13.9847 15.1667 13.75 15.1667C13.5153 15.1667 13.2807 15.0768 13.1019 14.8981L11 12.7962L8.89808 14.8981C8.71933 15.0768 8.48467 15.1667 8.25 15.1667C8.01533 15.1667 7.78067 15.0768 7.60192 14.8981C7.2435 14.5397 7.2435 13.9603 7.60192 13.6019L9.70383 11.5L7.60192 9.39808C7.2435 9.03967 7.2435 8.46033 7.60192 8.10192C7.96033 7.7435 8.53967 7.7435 8.89808 8.10192L11 10.2038L13.1019 8.10192C13.4603 7.7435 14.0397 7.7435 14.3981 8.10192C14.7565 8.46033 14.7565 9.03967 14.3981 9.39808L12.2962 11.5L14.3981 13.6019Z" fill="#F27373"/>
</g>
<defs>
<clipPath id="clip0_1019_168">
<rect width="22" height="22" fill="white" transform="translate(0 0.5)"/>
</clipPath>
</defs>
</svg>
