<svg width="36" height="36" viewBox="0 0 36 36" fill="none" xmlns="http://www.w3.org/2000/svg">
<g id="monitor-flash 1">
<path id="Vector" d="M29.9531 17.2969V3.23438C29.9531 2.86141 29.805 2.50373 29.5412 2.24001C29.2775 1.97628 28.9198 1.82813 28.5469 1.82812H3.23438C2.86141 1.82813 2.50373 1.97628 2.24001 2.24001C1.97628 2.50373 1.82813 2.86141 1.82812 3.23438V17.2969H29.9531Z" fill="#9FEAFF"/>
<path id="Vector_2" d="M24.3281 1.82812H3.23438C2.86141 1.82813 2.50373 1.97628 2.24001 2.24001C1.97628 2.50373 1.82813 2.86141 1.82812 3.23438V17.2969H8.85938L24.3281 1.82812Z" fill="#DFF9FF"/>
<path id="Vector_3" d="M1.82812 17.2969V20.1094C1.82812 20.4823 1.97628 20.84 2.24001 21.1037C2.50373 21.3675 2.86141 21.5156 3.23438 21.5156H28.5469C28.9198 21.5156 29.2775 21.3675 29.5412 21.1037C29.805 20.84 29.9531 20.4823 29.9531 20.1094V17.2969H1.82812Z" fill="white"/>
<path id="Vector_4" d="M20.1094 25.7344C19.5499 25.7344 19.0134 25.5121 18.6178 25.1166C18.2222 24.721 18 24.1844 18 23.625V21.5156H13.0781V23.625C13.0781 24.1844 12.8559 24.721 12.4603 25.1166C12.0647 25.5121 11.5282 25.7344 10.9688 25.7344H20.1094Z" fill="#9FEAFF"/>
<path id="Vector_5" d="M8.88281 25.7344H18.7266" stroke="#00303E" stroke-width="1.5" stroke-linecap="round" stroke-linejoin="round"/>
<path id="Vector_6" d="M1.85156 17.2969H22.9453" stroke="#00303E" stroke-width="1.5" stroke-linecap="round" stroke-linejoin="round"/>
<path id="Vector_7" d="M13.1016 21.5156V23.625C13.1016 24.1844 12.8793 24.721 12.4837 25.1166C12.0882 25.5121 11.5516 25.7344 10.9922 25.7344" stroke="#00303E" stroke-width="1.5" stroke-linecap="round" stroke-linejoin="round"/>
<path id="Vector_8" d="M20.1328 21.5156H3.25781C2.88485 21.5156 2.52717 21.3675 2.26344 21.1037C1.99972 20.84 1.85156 20.4823 1.85156 20.1094V3.23438C1.85156 2.86141 1.99972 2.50373 2.26344 2.24001C2.52717 1.97628 2.88485 1.82813 3.25781 1.82812H28.5703C28.9433 1.82812 29.301 1.97628 29.5647 2.24001C29.8284 2.50373 29.9766 2.86141 29.9766 3.23438V11.6719" stroke="#00303E" stroke-width="1.5" stroke-linecap="round" stroke-linejoin="round"/>
<path id="Vector_9" d="M29.9755 14.4844L21.6631 24.8653C21.5985 24.9422 21.557 25.036 21.5437 25.1356C21.5304 25.2352 21.5458 25.3365 21.588 25.4277C21.6302 25.5189 21.6975 25.5962 21.782 25.6505C21.8666 25.7048 21.9648 25.7339 22.0653 25.7344H25.7567V34.1719L34.0691 23.7909C34.1338 23.714 34.1752 23.6203 34.1885 23.5207C34.2018 23.4211 34.1865 23.3197 34.1443 23.2285C34.1021 23.1374 34.0347 23.0601 33.9502 23.0058C33.8656 22.9514 33.7674 22.9223 33.6669 22.9219H29.9755V14.4844Z" fill="#9FEAFF" stroke="#00303E" stroke-width="1.5" stroke-linecap="round" stroke-linejoin="round"/>
</g>
</svg>
