<svg width="36" height="36" viewBox="0 0 36 36" fill="none" xmlns="http://www.w3.org/2000/svg">
<g id="organic-plant 1">
<path id="Vector" d="M6.01563 17.9999C6.01562 19.5737 6.3256 21.1321 6.92786 22.586C7.53011 24.04 8.41285 25.3611 9.52568 26.4739C10.6385 27.5868 11.9596 28.4695 13.4136 29.0718C14.8676 29.674 16.4259 29.984 17.9997 29.984C19.5735 29.984 21.1318 29.674 22.5858 29.0718C24.0398 28.4695 25.3609 27.5868 26.4737 26.4739C27.5865 25.3611 28.4693 24.04 29.0715 22.586C29.6738 21.1321 29.9838 19.5737 29.9838 17.9999C29.9838 16.4262 29.6738 14.8678 29.0715 13.4138C28.4693 11.9599 27.5865 10.6387 26.4737 9.52592C25.3609 8.4131 24.0398 7.53036 22.5858 6.9281C21.1318 6.32585 19.5735 6.01587 17.9997 6.01587C16.4259 6.01587 14.8676 6.32585 13.4136 6.9281C11.9596 7.53036 10.6385 8.4131 9.52568 9.52592C8.41285 10.6387 7.53011 11.9599 6.92786 13.4138C6.3256 14.8678 6.01562 16.4262 6.01563 17.9999Z" fill="#FBD0D0"/>
<path id="Vector_2" d="M2.13623 21.1556C1.67195 18.8103 1.73303 16.3913 2.31509 14.0724C2.89714 11.7536 3.98572 9.59244 5.50255 7.74443C7.01939 5.89642 8.92682 4.40741 11.0877 3.38445C13.2486 2.36148 15.6093 1.82997 18.0001 1.82812" stroke="#F27373" stroke-width="1.5" stroke-linecap="round" stroke-linejoin="round"/>
<path id="Vector_3" d="M4.55289 26.9859C3.96325 26.1046 3.46207 25.1673 3.05664 24.1875" stroke="#F27373" stroke-width="1.5" stroke-linecap="round" stroke-linejoin="round"/>
<path id="Vector_4" d="M9.01414 31.448C8.13431 30.8582 7.31389 30.1842 6.56445 29.4357" stroke="#F27373" stroke-width="1.5" stroke-linecap="round" stroke-linejoin="round"/>
<path id="Vector_5" d="M14.8444 33.8639C13.8058 33.6585 12.7902 33.3504 11.8125 32.9442" stroke="#F27373" stroke-width="1.5" stroke-linecap="round" stroke-linejoin="round"/>
<path id="Vector_6" d="M33.8639 21.1556C34.3282 18.8103 34.2671 16.3913 33.6851 14.0724C33.103 11.7536 32.0144 9.59244 30.4976 7.74443C28.9807 5.89642 27.0733 4.40741 24.9124 3.38445C22.7515 2.36148 20.3908 1.82997 18 1.82812" stroke="#F27373" stroke-width="1.5" stroke-linecap="round" stroke-linejoin="round"/>
<path id="Vector_7" d="M31.4473 26.9859C32.0369 26.1046 32.5381 25.1673 32.9435 24.1875" stroke="#F27373" stroke-width="1.5" stroke-linecap="round" stroke-linejoin="round"/>
<path id="Vector_8" d="M26.9863 31.4479C27.8662 30.8581 28.6866 30.1841 29.436 29.4355" stroke="#F27373" stroke-width="1.5" stroke-linecap="round" stroke-linejoin="round"/>
<path id="Vector_9" d="M21.1562 33.8639C22.1958 33.6587 23.2124 33.3506 24.1909 32.9442" stroke="#F27373" stroke-width="1.5" stroke-linecap="round" stroke-linejoin="round"/>
<path id="Vector_10" d="M17.9863 34.1719V29.2739" stroke="#F27373" stroke-width="1.5" stroke-linecap="round" stroke-linejoin="round"/>
<path id="Vector_11" d="M29.9531 18.0309C29.9531 19.6006 29.6439 21.1549 29.0432 22.6051C28.4425 24.0554 27.5621 25.3731 26.4521 26.483C25.3422 27.593 24.0245 28.4734 22.5743 29.0741C21.124 29.6748 19.5697 29.984 18 29.984C18.0059 26.8157 19.2672 23.7788 21.5076 21.5384C23.7479 19.2981 26.7848 18.0368 29.9531 18.0309Z" fill="#FDE8E8"/>
<path id="Vector_12" d="M21.1498 21.9122C19.1198 24.1095 17.9947 26.9926 17.9998 29.9841C18.0049 27.0266 16.9068 24.1735 14.9201 21.9825C14.0747 19.6287 13.9167 17.0828 14.4645 14.6424C15.0123 12.202 16.2434 9.96795 18.0139 8.20129C19.7692 9.96304 20.9939 12.1827 21.5484 14.607C22.1029 17.0313 21.9648 19.5626 21.1498 21.9122Z" fill="#FBD0D0"/>
<path id="Vector_13" d="M18 29.984C14.8305 29.9818 11.7915 28.7217 9.55033 26.4805C7.30917 24.2394 6.04911 21.2004 6.04688 18.0309C9.21613 18.0339 12.2547 19.2942 14.4957 21.5352C16.7367 23.7762 17.997 26.8148 18 29.984Z" fill="#FDE8E8"/>
<path id="Vector_14" d="M18.014 13.1161C19.9017 15.0099 21.1656 17.4352 21.6365 20.0672C22.0482 17.9439 21.9332 15.7521 21.3017 13.6835C20.6702 11.6149 19.5414 9.73264 18.014 8.20129C16.4909 9.72218 15.3642 11.5936 14.7328 13.6514C14.1015 15.7092 13.9848 17.8905 14.393 20.004C14.8754 17.3946 16.138 14.9929 18.014 13.1161Z" fill="#FDE8E8"/>
<path id="Vector_15" d="M18.6117 26.2392C18.2087 27.4467 18.0021 28.711 18 29.984C19.5697 29.984 21.124 29.6748 22.5743 29.0741C24.0245 28.4734 25.3422 27.593 26.4521 26.483C27.5621 25.3731 28.4425 24.0554 29.0432 22.6051C29.6439 21.1549 29.9531 19.6006 29.9531 18.0309C29.7478 18.0309 29.5481 18.0534 29.3456 18.0632C28.589 20.3491 27.1592 22.353 25.2437 23.812C23.3282 25.271 21.0165 26.1171 18.6117 26.2392Z" fill="#FBD0D0"/>
<path id="Vector_16" d="M6.65578 18.0632C6.45328 18.0534 6.25219 18.0309 6.04688 18.0309C6.04911 21.2004 7.30917 24.2394 9.55033 26.4805C11.7915 28.7217 14.8305 29.9818 18 29.984C17.9975 28.7111 17.791 27.4467 17.3883 26.2392C14.9841 26.1156 12.6732 25.269 10.7582 23.8102C8.84322 22.3514 7.41334 20.3483 6.65578 18.0632Z" fill="#FBD0D0"/>
<path id="Vector_17" d="M29.9531 18.0309C29.9531 19.6006 29.6439 21.1549 29.0432 22.6051C28.4425 24.0554 27.5621 25.3731 26.4521 26.483C25.3422 27.593 24.0245 28.4734 22.5743 29.0741C21.124 29.6748 19.5697 29.984 18 29.984C18.0059 26.8157 19.2672 23.7788 21.5076 21.5384C23.7479 19.2981 26.7848 18.0368 29.9531 18.0309Z" stroke="#F27373" stroke-width="1.5" stroke-linecap="round" stroke-linejoin="round"/>
<path id="Vector_18" d="M21.1498 21.9122C19.1198 24.1095 17.9947 26.9926 17.9998 29.9841C18.0049 27.0266 16.9068 24.1735 14.9201 21.9825C14.0747 19.6287 13.9167 17.0828 14.4645 14.6424C15.0123 12.202 16.2434 9.96795 18.0139 8.20129C19.7692 9.96304 20.9939 12.1827 21.5484 14.607C22.1029 17.0313 21.9648 19.5626 21.1498 21.9122Z" stroke="#F27373" stroke-width="1.5" stroke-linecap="round" stroke-linejoin="round"/>
<path id="Vector_19" d="M18 29.984C14.8305 29.9818 11.7915 28.7217 9.55033 26.4805C7.30917 24.2394 6.04911 21.2004 6.04688 18.0309C9.21613 18.0339 12.2547 19.2942 14.4957 21.5352C16.7367 23.7762 17.997 26.8148 18 29.984Z" stroke="#F27373" stroke-width="1.5" stroke-linecap="round" stroke-linejoin="round"/>
</g>
</svg>
