<svg width="16" height="17" viewBox="0 0 16 17" fill="none" xmlns="http://www.w3.org/2000/svg">
  <path d="M14.8267 9.99375V9.9875C14.8256 9.98281 14.8242 9.97821 14.8223 9.97375C14.7808 9.86056 14.7326 9.74995 14.678 9.6425L12.0798 3.7375C12.0548 3.68062 12.0194 3.62891 11.9755 3.585C11.7897 3.39924 11.5692 3.25188 11.3266 3.15134C11.0839 3.0508 10.8238 2.99905 10.5611 2.99905C10.2984 2.99905 10.0383 3.0508 9.79561 3.15134C9.55293 3.25188 9.33243 3.39924 9.14671 3.585C9.05327 3.67854 9.00069 3.80529 9.00046 3.9375V5.5H7.00046V3.9375C7.00051 3.87182 6.98762 3.80677 6.96253 3.74608C6.93743 3.68538 6.90063 3.63022 6.85421 3.58375C6.66849 3.39799 6.44799 3.25063 6.20531 3.15009C5.96263 3.04955 5.70252 2.9978 5.43983 2.9978C5.17715 2.9978 4.91704 3.04955 4.67436 3.15009C4.43168 3.25063 4.21118 3.39799 4.02546 3.58375C3.98149 3.62766 3.9461 3.67937 3.92108 3.73625L1.32546 9.6425C1.27078 9.74995 1.22257 9.86056 1.18108 9.97375C1.17935 9.97803 1.17788 9.98241 1.17671 9.98688C1.17671 9.98688 1.17671 9.99188 1.17671 9.99375C0.918577 10.7396 0.964759 11.5571 1.30525 12.2691C1.64573 12.9812 2.2531 13.5303 2.99571 13.7976C3.73832 14.0649 4.55635 14.0288 5.27251 13.6971C5.98868 13.3654 6.54529 12.7649 6.82171 12.0256C6.94342 11.6936 7.0048 11.3424 7.00296 10.9888V6.5H9.00296V10.9894C9.00112 11.343 9.0625 11.6942 9.18421 12.0263C9.46063 12.7655 10.0172 13.3661 10.7334 13.6978C11.4496 14.0295 12.2676 14.0656 13.0102 13.7983C13.7528 13.531 14.3602 12.9818 14.7007 12.2698C15.0412 11.5577 15.0873 10.7402 14.8292 9.99438L14.8267 9.99375ZM5.87983 11.6813C5.6952 12.1739 5.32388 12.574 4.84633 12.7947C4.36878 13.0155 3.82346 13.0392 3.32855 12.8608C2.83363 12.6823 2.42897 12.316 2.20226 11.8412C1.97554 11.3665 1.94503 10.8215 2.11733 10.3244L2.23046 10.0663C2.43838 9.67103 2.77259 9.35676 3.17985 9.17353C3.58711 8.99029 4.04397 8.94863 4.47765 9.05518C4.91133 9.16173 5.29688 9.41037 5.57285 9.76146C5.84883 10.1126 5.99936 10.5459 6.00046 10.9925V11C6.00042 11.2332 5.9596 11.4646 5.87983 11.6838V11.6813ZM12.688 12.8794C12.3856 12.99 12.0611 13.0261 11.7418 12.9845C11.4226 12.9428 11.1181 12.8248 10.8543 12.6403C10.5905 12.4558 10.3751 12.2103 10.2264 11.9247C10.0778 11.6392 10.0003 11.3219 10.0005 11V10.9931C10.0021 10.5468 10.153 10.1138 10.4292 9.76311C10.7054 9.41243 11.0909 9.16422 11.5245 9.05799C11.958 8.95177 12.4146 8.99362 12.8216 9.1769C13.2286 9.36017 13.5626 9.67434 13.7705 10.0694L13.8836 10.3275C14.0614 10.8245 14.0355 11.3717 13.8116 11.8498C13.5876 12.3278 13.1837 12.6979 12.688 12.8794Z" fill="#536279"/>
</svg>