<svg width="22" height="23" viewBox="0 0 22 23" fill="none" xmlns="http://www.w3.org/2000/svg">
<g id="check-circle 1" clip-path="url(#clip0_1019_172)">
<path id="Vector" d="M11 0.5C4.93442 0.5 0 5.43442 0 11.5C0 17.5656 4.93442 22.5 11 22.5C17.0656 22.5 22 17.5656 22 11.5C22 5.43442 17.0656 0.5 11 0.5ZM10.9166 14.6341C10.5618 14.9888 10.0952 15.1657 9.62683 15.1657C9.15842 15.1657 8.68725 14.987 8.32883 14.6295L6.43747 12.7966C6.07364 12.444 6.06456 11.8632 6.4172 11.4995C6.76978 11.1357 7.35044 11.1267 7.71419 11.4792L9.61583 13.3223L14.2871 8.73796C14.6483 8.38344 15.2283 8.38832 15.5836 8.74886C15.9393 9.10993 15.935 9.69105 15.5738 10.0468L10.9166 14.6341Z" fill="#62D087"/>
</g>
<defs>
<clipPath id="clip0_1019_172">
<rect width="22" height="22" fill="white" transform="translate(0 0.5)"/>
</clipPath>
</defs>
</svg>
