<svg width="36" height="36" viewBox="0 0 36 36" fill="none" xmlns="http://www.w3.org/2000/svg">
<g id="vip-royal (1) 1">
<path id="Vector" d="M1.82812 18C1.82813 22.289 3.53194 26.4024 6.56476 29.4352C9.59757 32.4681 13.711 34.1719 18 34.1719C22.289 34.1719 26.4024 32.4681 29.4352 29.4352C32.4681 26.4024 34.1719 22.289 34.1719 18C34.1719 13.711 32.4681 9.59757 29.4352 6.56476C26.4024 3.53194 22.289 1.82813 18 1.82812C13.711 1.82813 9.59757 3.53194 6.56476 6.56476C3.53194 9.59757 1.82813 13.711 1.82812 18Z" fill="#E7C7B1"/>
<path id="Vector_2" d="M6.56492 29.4357C3.532 26.4028 1.82812 22.2892 1.82813 18.0001C1.82813 13.7109 3.532 9.59734 6.56492 6.56443C9.59783 3.53151 13.7113 1.82764 18.0005 1.82764C22.2897 1.82764 26.4032 3.53151 29.4362 6.56443L6.56492 29.4357Z" fill="#F9F1EB"/>
<path id="Vector_3" d="M1.82812 18C1.82813 22.289 3.53194 26.4024 6.56476 29.4352C9.59757 32.4681 13.711 34.1719 18 34.1719C22.289 34.1719 26.4024 32.4681 29.4352 29.4352C32.4681 26.4024 34.1719 22.289 34.1719 18C34.1719 13.711 32.4681 9.59757 29.4352 6.56476C26.4024 3.53194 22.289 1.82813 18 1.82812C13.711 1.82813 9.59757 3.53194 6.56476 6.56476C3.53194 9.59757 1.82813 13.711 1.82812 18Z" stroke="#140C06" stroke-width="1.5" stroke-linecap="round" stroke-linejoin="round"/>
<path id="Vector_4" d="M8.85938 22.2188C8.85938 22.5917 9.00753 22.9494 9.27126 23.2131C9.53498 23.4769 9.89266 23.625 10.2656 23.625H26.4375C26.8105 23.625 27.1681 23.4769 27.4319 23.2131C27.6956 22.9494 27.8438 22.5917 27.8438 22.2188V14.625C27.8436 14.49 27.8046 14.3579 27.7314 14.2445C27.6583 14.1311 27.554 14.0411 27.4311 13.9854C27.3081 13.9296 27.1718 13.9104 27.0382 13.9301C26.9047 13.9498 26.7796 14.0074 26.678 14.0963L22.2188 18L18.5344 13.7011C18.4684 13.6239 18.3864 13.5619 18.2942 13.5195C18.2019 13.477 18.1016 13.455 18 13.455C17.8984 13.455 17.7981 13.477 17.7058 13.5195C17.6136 13.5619 17.5316 13.6239 17.4656 13.7011L13.7812 18L10.0603 14.2791C9.96206 14.1806 9.83679 14.1134 9.70036 14.0862C9.56394 14.0589 9.42248 14.0727 9.29391 14.1258C9.16533 14.179 9.05541 14.2691 8.97806 14.3847C8.90071 14.5004 8.8594 14.6364 8.85938 14.7755V22.2188Z" fill="#DBAC8A" stroke="#140C06" stroke-width="1.5" stroke-linecap="round" stroke-linejoin="round"/>
</g>
</svg>
