<svg xmlns="http://www.w3.org/2000/svg" width="30" height="30" viewBox="0 0 30 30" fill="none">
  <path d="M17.8442 4.44493C17.876 4.32595 17.9309 4.21441 18.0059 4.11668C18.0808 4.01894 18.1743 3.93694 18.2809 3.87534C18.3876 3.81374 18.5053 3.77376 18.6274 3.75769C18.7496 3.74161 18.8736 3.74975 18.9926 3.78165C20.7306 4.2351 22.3162 5.14365 23.5863 6.41372C24.8564 7.68379 25.7649 9.26946 26.2184 11.0074C26.2503 11.1264 26.2584 11.2505 26.2423 11.3726C26.2263 11.4947 26.1863 11.6124 26.1247 11.7191C26.0631 11.8257 25.9811 11.9192 25.8833 11.9941C25.7856 12.0691 25.6741 12.124 25.5551 12.1559C25.4759 12.1767 25.3944 12.1873 25.3125 12.1875C25.1061 12.1876 24.9054 12.1195 24.7416 11.9938C24.5778 11.8682 24.4601 11.692 24.4067 11.4926C24.037 10.0736 23.2956 8.77889 22.2588 7.74193C21.2221 6.70497 19.9275 5.9633 18.5086 5.59337C18.3895 5.56167 18.2779 5.5068 18.18 5.43191C18.0821 5.35702 18 5.26357 17.9383 5.1569C17.8766 5.05024 17.8365 4.93246 17.8203 4.81029C17.8042 4.68812 17.8123 4.56397 17.8442 4.44493ZM17.5711 9.34337C19.1871 9.77462 20.2254 10.8141 20.6567 12.4301C20.7101 12.6295 20.8278 12.8057 20.9916 12.9313C21.1554 13.057 21.3561 13.1251 21.5625 13.125C21.6444 13.1248 21.7259 13.1142 21.8051 13.0934C21.9241 13.0615 22.0356 13.0066 22.1333 12.9316C22.2311 12.8567 22.3131 12.7632 22.3747 12.6566C22.4363 12.5499 22.4763 12.4322 22.4923 12.3101C22.5084 12.188 22.5003 12.0639 22.4684 11.9449C21.8684 9.69962 20.3004 8.13165 18.0551 7.53165C17.9361 7.49987 17.8121 7.49183 17.69 7.508C17.5679 7.52416 17.4503 7.56421 17.3437 7.62585C17.2371 7.6875 17.1437 7.76954 17.0688 7.86728C16.9939 7.96502 16.939 8.07656 16.9072 8.19551C16.8755 8.31447 16.8674 8.43853 16.8836 8.56059C16.8997 8.68266 16.9398 8.80034 17.0014 8.90693C17.0631 9.01352 17.1451 9.10692 17.2429 9.18181C17.3406 9.25669 17.4521 9.31159 17.5711 9.34337ZM26.059 18.5695L20.5383 16.0957L20.5231 16.0887C20.2365 15.9661 19.9238 15.9169 19.6134 15.9455C19.303 15.9742 19.0047 16.0798 18.7453 16.2527C18.7148 16.2729 18.6854 16.2948 18.6574 16.3184L15.8051 18.75C13.9981 17.8723 12.1324 16.0207 11.2547 14.2371L13.6899 11.3414C13.7133 11.3121 13.7356 11.2828 13.7567 11.2512C13.9259 10.9925 14.0286 10.6961 14.0556 10.3882C14.0826 10.0803 14.033 9.77046 13.9113 9.48633V9.47227L11.4305 3.94219C11.2696 3.57102 10.993 3.26182 10.642 3.06076C10.291 2.85969 9.88437 2.77754 9.48282 2.82657C7.8949 3.03552 6.43733 3.81536 5.38235 5.02043C4.32738 6.2255 3.74714 7.77339 3.75001 9.37501C3.75001 18.6797 11.3203 26.25 20.625 26.25C22.2266 26.2529 23.7745 25.6726 24.9796 24.6177C26.1847 23.5627 26.9645 22.1051 27.1734 20.5172C27.2226 20.1158 27.1406 19.7092 26.9397 19.3582C26.7389 19.0072 26.4299 18.7306 26.059 18.5695Z" fill="#F27373"/>
</svg>