<svg xmlns="http://www.w3.org/2000/svg" width="28" height="28" viewBox="0 0 28 28" fill="none">
  <path d="M21.875 14C21.875 14.2321 21.7828 14.4546 21.6187 14.6187C21.4546 14.7828 21.2321 14.875 21 14.875H7C6.76794 14.875 6.54538 14.7828 6.38128 14.6187C6.21719 14.4546 6.125 14.2321 6.125 14C6.125 13.7679 6.21719 13.5454 6.38128 13.3813C6.54538 13.2172 6.76794 13.125 7 13.125H21C21.2321 13.125 21.4546 13.2172 21.6187 13.3813C21.7828 13.5454 21.875 13.7679 21.875 14ZM25.375 7.875H2.625C2.39294 7.875 2.17038 7.96719 2.00628 8.13128C1.84219 8.29538 1.75 8.51794 1.75 8.75C1.75 8.98206 1.84219 9.20462 2.00628 9.36872C2.17038 9.53281 2.39294 9.625 2.625 9.625H25.375C25.6071 9.625 25.8296 9.53281 25.9937 9.36872C26.1578 9.20462 26.25 8.98206 26.25 8.75C26.25 8.51794 26.1578 8.29538 25.9937 8.13128C25.8296 7.96719 25.6071 7.875 25.375 7.875ZM16.625 18.375H11.375C11.1429 18.375 10.9204 18.4672 10.7563 18.6313C10.5922 18.7954 10.5 19.0179 10.5 19.25C10.5 19.4821 10.5922 19.7046 10.7563 19.8687C10.9204 20.0328 11.1429 20.125 11.375 20.125H16.625C16.8571 20.125 17.0796 20.0328 17.2437 19.8687C17.4078 19.7046 17.5 19.4821 17.5 19.25C17.5 19.0179 17.4078 18.7954 17.2437 18.6313C17.0796 18.4672 16.8571 18.375 16.625 18.375Z" fill="#272932"/>
</svg>