<svg xmlns="http://www.w3.org/2000/svg" width="24" height="24" viewBox="0 0 24 24" fill="none">
  <path d="M21.7509 11.9897C21.7515 12.257 21.6808 12.5196 21.546 12.7503C21.4112 12.9811 21.2171 13.1716 20.984 13.3022L5.24242 22.3032C5.01625 22.4314 4.76085 22.4992 4.50085 22.5C4.26108 22.4995 4.02493 22.4416 3.81217 22.331C3.59942 22.2204 3.41628 22.0605 3.27809 21.8645C3.1399 21.6686 3.0507 21.4424 3.01796 21.2049C2.98522 20.9673 3.00989 20.7254 3.08992 20.4994L5.65398 13.0041C5.67924 12.9299 5.7271 12.8656 5.79082 12.82C5.85455 12.7744 5.93095 12.75 6.00929 12.75H12.7509C12.8537 12.7503 12.9554 12.7293 13.0498 12.6886C13.1442 12.6478 13.2292 12.5881 13.2996 12.5131C13.3699 12.4381 13.4241 12.3495 13.4587 12.2526C13.4933 12.1558 13.5077 12.0529 13.5009 11.9503C13.4838 11.7575 13.3946 11.5782 13.251 11.4483C13.1074 11.3185 12.9201 11.2476 12.7265 11.25H6.01585C5.93763 11.2502 5.86131 11.2258 5.7976 11.1805C5.73389 11.1351 5.68596 11.0709 5.66054 10.9969L3.08804 3.49691C2.98786 3.20952 2.97747 2.89846 3.05826 2.60502C3.13904 2.31159 3.30718 2.04967 3.54034 1.85405C3.77349 1.65844 4.06064 1.53837 4.36364 1.5098C4.66665 1.48123 4.97118 1.54551 5.23679 1.6941L20.9868 10.6838C21.2185 10.8142 21.4113 11.0039 21.5455 11.2334C21.6798 11.4628 21.7507 11.7239 21.7509 11.9897Z" fill="white"/>
</svg>