<svg xmlns="http://www.w3.org/2000/svg" width="22" height="22" viewBox="0 0 22 22" fill="none">
  <path d="M13.9691 5.5C13.8917 5.51719 13.7757 5.56015 13.7198 5.59023C13.6597 5.62031 12.1429 7.53672 10.3468 9.84844C8.5464 12.1602 7.06398 14.0508 7.05109 14.0508C7.0382 14.0465 6.37648 13.243 5.58585 12.2633C3.90577 10.175 3.85421 10.1148 3.69093 10.0289C3.36007 9.86133 2.89171 9.88281 2.6296 10.0805C2.32452 10.3168 2.19992 10.9355 2.39327 11.2621C2.44054 11.3437 3.37296 12.5168 4.46437 13.8703C6.00695 15.7781 6.4882 16.3496 6.6171 16.4141C6.73312 16.4742 6.87062 16.5 7.05968 16.5C7.43351 16.5 7.62257 16.3883 7.94054 15.9844C8.07804 15.8082 8.56788 15.1766 9.02765 14.5879C11.0987 11.9324 12.4694 10.175 14.1452 8.03086C14.6566 7.37773 15.0948 6.80195 15.1206 6.75469C15.1851 6.63008 15.1808 6.25625 15.112 6.08867C14.9316 5.66328 14.4116 5.39258 13.9691 5.5Z" fill="#8695AC"/>
  <path d="M18.5014 5.52151C18.3854 5.55159 18.2436 5.62893 18.1749 5.69768C18.1104 5.76643 16.6194 7.66994 14.8663 9.9258C13.1132 12.1817 11.6651 14.0336 11.6479 14.0422C11.6307 14.0465 11.5061 13.8961 11.3643 13.7071C11.2268 13.518 11.1022 13.3633 11.0893 13.3633C11.0635 13.3676 9.97214 14.7039 9.91199 14.8071C9.8905 14.8457 10.0581 15.0906 10.4233 15.5547C11.0893 16.4055 11.2354 16.5129 11.7124 16.4914C11.91 16.4828 12.0518 16.4528 12.1292 16.4012C12.2538 16.3196 12.4557 16.0746 13.7104 14.459C14.4925 13.4578 14.862 12.9809 17.0706 10.1492C17.5346 9.55627 18.2995 8.57658 18.7635 7.98362C19.2319 7.38635 19.6487 6.82776 19.6874 6.74612C20.0268 6.0844 19.2835 5.31096 18.5014 5.52151Z" fill="#8695AC"/>
  <path d="M7.3914 9.97305C7.00898 10.1234 6.77695 10.6992 6.92304 11.1332C6.97461 11.275 7.47734 12.0313 7.52031 12.027C7.54609 12.027 8.64179 10.6777 8.69765 10.5832C8.74062 10.5016 8.39258 10.132 8.15625 10.0074C7.98008 9.91719 7.57617 9.90001 7.3914 9.97305Z" fill="#8695AC"/>
</svg>