<svg xmlns="http://www.w3.org/2000/svg" width="30" height="30" viewBox="0 0 30 30" fill="none">
  <g clip-path="url(#clip0_1176_1187)">
    <path d="M22.5 8.4375V21.5625C22.5 22.0598 22.3025 22.5367 21.9508 22.8883C21.5992 23.24 21.1223 23.4375 20.625 23.4375H3.75C3.25272 23.4375 2.77581 23.24 2.42417 22.8883C2.07254 22.5367 1.875 22.0598 1.875 21.5625V8.4375C1.875 7.94022 2.07254 7.46331 2.42417 7.11167C2.77581 6.76004 3.25272 6.5625 3.75 6.5625H20.625C21.1223 6.5625 21.5992 6.76004 21.9508 7.11167C22.3025 7.46331 22.5 7.94022 22.5 8.4375ZM29.2969 8.4668C29.1646 8.43443 29.027 8.43044 28.8931 8.45508C28.7592 8.47972 28.632 8.53244 28.5199 8.60977L24.5836 11.2336C24.5194 11.2764 24.4667 11.3345 24.4304 11.4025C24.394 11.4706 24.3749 11.5466 24.375 11.6238V18.3762C24.3749 18.4534 24.394 18.5294 24.4304 18.5975C24.4667 18.6655 24.5194 18.7236 24.5836 18.7664L28.5422 21.4055C28.6904 21.5043 28.8636 21.5589 29.0417 21.5628C29.2197 21.5668 29.3953 21.5199 29.5477 21.4277C29.6887 21.3381 29.8043 21.2138 29.8835 21.0667C29.9627 20.9195 30.0028 20.7546 30 20.5875V9.375C30.0001 9.16708 29.9311 8.96502 29.8038 8.80061C29.6765 8.63621 29.4982 8.51878 29.2969 8.4668Z" fill="#F27373"/>
  </g>
  <defs>
    <clipPath id="clip0_1176_1187">
      <rect width="30" height="30" fill="white"/>
    </clipPath>
  </defs>
</svg>