<svg width="50" height="50" viewBox="0 0 50 50" fill="none" xmlns="http://www.w3.org/2000/svg">
<g id="Frame">
<path id="Vector" d="M39.0625 14.7734V7.8125C39.0625 6.9837 38.7333 6.18884 38.1472 5.60279C37.5612 5.01674 36.7663 4.6875 35.9375 4.6875H14.0625C13.2337 4.6875 12.4388 5.01674 11.8528 5.60279C11.2667 6.18884 10.9375 6.9837 10.9375 7.8125V14.8438C10.9386 15.3287 11.052 15.8068 11.2689 16.2406C11.4857 16.6743 11.8002 17.0519 12.1875 17.3438L22.3965 25L12.1875 32.6562C11.8002 32.9481 11.4857 33.3257 11.2689 33.7594C11.052 34.1932 10.9386 34.6713 10.9375 35.1562V42.1875C10.9375 43.0163 11.2667 43.8112 11.8528 44.3972C12.4388 44.9833 13.2337 45.3125 14.0625 45.3125H35.9375C36.7663 45.3125 37.5612 44.9833 38.1472 44.3972C38.7333 43.8112 39.0625 43.0163 39.0625 42.1875V35.2266C39.0614 34.7435 38.9489 34.2671 38.7338 33.8346C38.5187 33.402 38.2068 33.0249 37.8223 32.7324L27.5918 25L37.8223 17.2656C38.207 16.9738 38.5191 16.597 38.7342 16.1648C38.9493 15.7325 39.0617 15.2563 39.0625 14.7734ZM14.0625 7.8125H35.9375V14.7734L34.8105 15.625H15.1035L14.0625 14.8438V7.8125ZM25 23.0469L19.2715 18.75H30.6777L25 23.0469ZM35.9375 42.1875H14.0625V35.1562L23.4375 28.125V32.8125C23.4375 33.2269 23.6021 33.6243 23.8951 33.9174C24.1882 34.2104 24.5856 34.375 25 34.375C25.4144 34.375 25.8118 34.2104 26.1049 33.9174C26.3979 33.6243 26.5625 33.2269 26.5625 32.8125V28.1406L35.9375 35.2266V42.1875Z" fill="#EE4444"/>
</g>
</svg>
