<svg width="22" height="23" viewBox="0 0 22 23" fill="none" xmlns="http://www.w3.org/2000/svg">
<g id="Frame">
<path id="Vector" d="M13.75 5.3125H5.5C5.13533 5.3125 4.78559 5.45737 4.52773 5.71523C4.26987 5.97309 4.125 6.32283 4.125 6.6875V19.75C4.125 19.8763 4.1598 20.0002 4.22558 20.108C4.29136 20.2159 4.38559 20.3035 4.49791 20.3613C4.61023 20.4191 4.73631 20.4449 4.8623 20.4357C4.98828 20.4266 5.10932 20.3829 5.21211 20.3095L9.625 17.1573L14.0387 20.3095C14.1415 20.3826 14.2625 20.4261 14.3883 20.4351C14.5142 20.4442 14.6401 20.4184 14.7523 20.3606C14.8645 20.3028 14.9586 20.2153 15.0243 20.1076C15.0901 19.9999 15.1249 19.8762 15.125 19.75V6.6875C15.125 6.32283 14.9801 5.97309 14.7223 5.71523C14.4644 5.45737 14.1147 5.3125 13.75 5.3125ZM13.75 18.4145L10.0237 15.7505C9.90715 15.6672 9.76743 15.6224 9.62414 15.6224C9.48085 15.6224 9.34113 15.6672 9.22453 15.7505L5.5 18.4137V6.6875H13.75V18.4145ZM17.875 3.9375V17C17.875 17.1823 17.8026 17.3572 17.6736 17.4861C17.5447 17.6151 17.3698 17.6875 17.1875 17.6875C17.0052 17.6875 16.8303 17.6151 16.7014 17.4861C16.5724 17.3572 16.5 17.1823 16.5 17V3.9375H7.5625C7.38016 3.9375 7.2053 3.86507 7.07636 3.73614C6.94743 3.6072 6.875 3.43234 6.875 3.25C6.875 3.06766 6.94743 2.8928 7.07636 2.76386C7.2053 2.63493 7.38016 2.5625 7.5625 2.5625H16.5C16.8647 2.5625 17.2144 2.70737 17.4723 2.96523C17.7301 3.22309 17.875 3.57283 17.875 3.9375Z" fill="#F0F2F5"/>
</g>
</svg>
