<svg width="50" height="50" viewBox="0 0 50 50" fill="none" xmlns="http://www.w3.org/2000/svg">
<g id="Frame">
<path id="Vector" d="M44.7109 9.70505C44.5238 9.55921 44.3058 9.45791 44.0737 9.40884C43.8415 9.35978 43.6013 9.36422 43.3711 9.42185L31.4316 12.4062L19.4492 6.41404C19.1154 6.24751 18.7329 6.20594 18.3711 6.29685L5.87109 9.42185C5.53306 9.50634 5.23297 9.7014 5.01852 9.97601C4.80407 10.2506 4.68755 10.589 4.6875 10.9375V39.0625C4.68754 39.2999 4.74168 39.5342 4.84581 39.7476C4.94995 39.9609 5.10134 40.1478 5.28849 40.2939C5.47564 40.44 5.69362 40.5415 5.92588 40.5907C6.15814 40.64 6.39857 40.6357 6.62891 40.5781L18.5684 37.5937L30.5508 43.5859C30.7683 43.6932 31.0075 43.7493 31.25 43.75C31.3777 43.7499 31.505 43.7342 31.6289 43.7031L44.1289 40.5781C44.4669 40.4936 44.767 40.2985 44.9815 40.0239C45.1959 39.7493 45.3124 39.4109 45.3125 39.0625V10.9375C45.3126 10.6998 45.2584 10.4653 45.1542 10.2517C45.0499 10.0382 44.8983 9.8512 44.7109 9.70505ZM20.3125 10.3398L29.6875 15.0273V39.6601L20.3125 34.9726V10.3398ZM7.8125 12.1582L17.1875 9.81443V34.7168L7.8125 37.0605V12.1582ZM42.1875 37.8418L32.8125 40.1855V15.2832L42.1875 12.9394V37.8418Z" fill="#EE4444"/>
</g>
</svg>
