<svg width="22" height="23" viewBox="0 0 22 23" fill="none" xmlns="http://www.w3.org/2000/svg">
<g id="Frame">
<path id="Vector" d="M19.5353 6.80521L15.6948 2.96552C15.5671 2.83781 15.4155 2.7365 15.2487 2.66738C15.0818 2.59826 14.903 2.56268 14.7224 2.56268C14.5418 2.56268 14.363 2.59826 14.1961 2.66738C14.0293 2.7365 13.8777 2.83781 13.75 2.96552L3.15305 13.5625C3.02482 13.6897 2.92315 13.8411 2.85396 14.008C2.78476 14.1748 2.74943 14.3538 2.75001 14.5344V18.375C2.75001 18.7396 2.89487 19.0894 3.15274 19.3472C3.4106 19.6051 3.76033 19.75 4.12501 19.75H18.5625C18.7448 19.75 18.9197 19.6775 19.0486 19.5486C19.1776 19.4197 19.25 19.2448 19.25 19.0625C19.25 18.8801 19.1776 18.7053 19.0486 18.5763C18.9197 18.4474 18.7448 18.375 18.5625 18.375H9.91032L19.5353 8.74998C19.663 8.62229 19.7643 8.4707 19.8335 8.30385C19.9026 8.13701 19.9382 7.95819 19.9382 7.77759C19.9382 7.597 19.9026 7.41817 19.8335 7.25133C19.7643 7.08449 19.663 6.93289 19.5353 6.80521ZM7.96555 18.375H4.12501V14.5344L11.6875 6.97193L15.5281 10.8125L7.96555 18.375ZM16.5 9.84052L12.6603 5.99998L14.7228 3.93748L18.5625 7.77802L16.5 9.84052Z" fill="#F0F2F5"/>
</g>
</svg>
