<svg width="26" height="26" viewBox="0 0 26 26" fill="none" xmlns="http://www.w3.org/2000/svg">
<g id="facebook">
<path id="Vector" d="M18.4167 3.79172C18.4167 3.64807 18.3596 3.51029 18.258 3.40871C18.1564 3.30713 18.0187 3.25006 17.875 3.25006H15.1667C13.8029 3.18212 12.4676 3.65673 11.4527 4.57019C10.4377 5.48364 9.8256 6.76168 9.75 8.12506V11.0501H7.04167C6.89801 11.0501 6.76023 11.1071 6.65865 11.2087C6.55707 11.3103 6.5 11.4481 6.5 11.5917V14.4084C6.5 14.552 6.55707 14.6898 6.65865 14.7914C6.76023 14.893 6.89801 14.9501 7.04167 14.9501H9.75V22.2084C9.75 22.352 9.80707 22.4898 9.90865 22.5914C10.0102 22.693 10.148 22.7501 10.2917 22.7501H13.5417C13.6853 22.7501 13.8231 22.693 13.9247 22.5914C14.0263 22.4898 14.0833 22.352 14.0833 22.2084V14.9501H16.9217C17.0421 14.9518 17.1597 14.9133 17.2559 14.8407C17.352 14.7681 17.4212 14.6656 17.4525 14.5492L18.2325 11.7326C18.2541 11.6525 18.2569 11.5686 18.241 11.4873C18.225 11.4059 18.1906 11.3294 18.1403 11.2634C18.0901 11.1975 18.0254 11.144 17.9512 11.107C17.8771 11.07 17.7954 11.0505 17.7125 11.0501H14.0833V8.12506C14.1103 7.85691 14.2362 7.60843 14.4365 7.42814C14.6368 7.24786 14.8972 7.14871 15.1667 7.15006H17.875C18.0187 7.15006 18.1564 7.09299 18.258 6.99141C18.3596 6.88982 18.4167 6.75205 18.4167 6.60839V3.79172Z" fill="#536279"/>
</g>
</svg>
