<svg width="22" height="23" viewBox="0 0 22 23" fill="none" xmlns="http://www.w3.org/2000/svg">
<g id="image 4 (traced)">
<g id="Black">
<path id="Vector" d="M9.86562 2.60977C6.91367 2.99219 4.31836 4.83125 2.99492 7.48242C2.35039 8.78008 2.0625 10.0047 2.0625 11.4699C2.0625 12.9738 2.32891 14.1512 2.96055 15.4402C3.86289 17.2707 5.2293 18.6371 7.05977 19.5395C8.33594 20.1625 9.53476 20.4375 11 20.4375C12.4652 20.4375 13.6641 20.1625 14.9402 19.5395C17.7031 18.1816 19.5379 15.582 19.8988 12.5141C19.9547 12.0328 19.9246 10.4473 19.8559 10.1121C19.7699 9.7125 19.525 9.50625 19.1426 9.50625C18.8547 9.50625 18.6398 9.63516 18.5195 9.89297C18.425 10.0777 18.425 10.1035 18.4766 10.5719C18.5539 11.2465 18.5109 12.4195 18.3906 12.9824C18.1414 14.1598 17.5957 15.3242 16.8738 16.2137L16.659 16.4801L16.4398 16.1922C15.8941 15.466 15.0219 14.7527 14.1324 14.2973L13.634 14.0437L13.909 13.7687C14.416 13.266 14.7984 12.6172 15.0047 11.9039C15.0906 11.6074 15.1035 11.4699 15.1035 10.8125C15.1035 10.1551 15.0906 10.0176 15.0047 9.72109C14.5879 8.28164 13.5309 7.22461 12.0914 6.80781C11.7949 6.72187 11.6574 6.70898 11 6.70898C10.3426 6.70898 10.2051 6.72187 9.90859 6.80781C8.47344 7.22461 7.41211 8.28594 6.99531 9.72109C6.90937 10.0176 6.89648 10.1551 6.89648 10.8125C6.89648 11.4699 6.90937 11.6074 6.99531 11.9039C7.20156 12.6172 7.58398 13.266 8.09102 13.7687L8.36601 14.0437L7.86758 14.2973C6.97812 14.7527 6.10586 15.466 5.56016 16.1922L5.34102 16.4801L5.12187 16.2051C4.38711 15.2941 3.86719 14.1727 3.60078 12.9609C3.51484 12.5613 3.50625 12.3895 3.50625 11.5C3.50625 10.6105 3.51484 10.4387 3.60078 10.0391C3.81992 9.03789 4.20234 8.12695 4.75664 7.28906C5.21641 6.60156 6.10156 5.71641 6.78906 5.25664C7.92773 4.50039 9.22109 4.05781 10.4973 3.98906C10.9871 3.95898 11.8937 3.98906 12.1043 4.04062C12.1559 4.05781 12.2031 4.05351 12.2031 4.03633C12.2031 4.01484 11.941 3.67969 11.6187 3.28008L11.0344 2.5625L10.6004 2.5668C10.3598 2.57109 10.0289 2.59258 9.86562 2.60977ZM11.3996 8.12266C12.302 8.21289 13.1871 8.93477 13.5652 9.88867C13.677 10.168 13.6855 10.2324 13.6855 10.8125C13.6855 11.4141 13.6812 11.4484 13.548 11.7793C13.2945 12.4066 12.7617 12.9824 12.1773 13.2617C11.7863 13.4508 11.4598 13.5238 11 13.5238C10.5402 13.5238 10.2137 13.4508 9.82266 13.2617C9.23828 12.9824 8.70547 12.4066 8.45195 11.7793C8.31875 11.4484 8.31445 11.4141 8.31445 10.8125C8.31445 10.2324 8.32305 10.168 8.43476 9.88867C8.74414 9.11094 9.31562 8.53945 10.0719 8.25586C10.3512 8.15273 10.8797 8.0625 11.0645 8.08828C11.1117 8.09258 11.2621 8.10977 11.3996 8.12266ZM11.941 15.0492C13.3805 15.3027 14.6738 16.132 15.5031 17.3309L15.602 17.4684L15.2668 17.7047C14.2312 18.4395 12.766 18.9422 11.4727 19.0109C10.1234 19.084 8.92461 18.852 7.74727 18.2891C7.33047 18.0914 6.54414 17.6145 6.44961 17.5027C6.41953 17.4641 6.47539 17.3609 6.64727 17.1332C7.88047 15.5004 9.93008 14.6969 11.941 15.0492Z" fill="#E8FCFC"/>
<path id="Vector_2" d="M16.8094 2.64846C16.5258 2.82034 16.5 2.91917 16.5 3.81721V4.62503H15.6965C14.966 4.62503 14.8758 4.63362 14.7469 4.71096C14.5406 4.83987 14.4375 5.03323 14.4375 5.31253C14.4375 5.59182 14.5406 5.78518 14.7469 5.91409C14.8758 5.99143 14.966 6.00002 15.6965 6.00002H16.5V6.80354C16.5 7.70588 16.5258 7.80471 16.8094 7.97659C17.0027 8.0926 17.3723 8.0926 17.5656 7.97659C17.8492 7.80471 17.875 7.70588 17.875 6.80354V6.00002H18.6828C19.5809 6.00002 19.6797 5.97424 19.8516 5.69065C19.9676 5.49729 19.9676 5.12776 19.8516 4.9344C19.6797 4.65081 19.5809 4.62503 18.6828 4.62503H17.875V3.81721C17.875 3.09104 17.8664 3.00081 17.7891 2.8719C17.6602 2.66565 17.4668 2.56253 17.1875 2.56253C17.0285 2.56253 16.9039 2.58831 16.8094 2.64846Z" fill="#E8FCFC"/>
</g>
</g>
</svg>
