<svg width="50" height="50" viewBox="0 0 50 50" fill="none" xmlns="http://www.w3.org/2000/svg">
<g id="Frame">
<path id="Vector" d="M40.625 6.25C40.625 6.6644 40.4604 7.06183 40.1674 7.35485C39.8743 7.64788 39.4769 7.8125 39.0625 7.8125H10.9375C10.5231 7.8125 10.1257 7.64788 9.83265 7.35485C9.53962 7.06183 9.375 6.6644 9.375 6.25C9.375 5.8356 9.53962 5.43817 9.83265 5.14515C10.1257 4.85212 10.5231 4.6875 10.9375 4.6875H39.0625C39.4769 4.6875 39.8743 4.85212 40.1674 5.14515C40.4604 5.43817 40.625 5.8356 40.625 6.25ZM34.375 14.0625V43.75C34.375 44.5788 34.0458 45.3737 33.4597 45.9597C32.8737 46.5458 32.0788 46.875 31.25 46.875H18.75C17.9212 46.875 17.1263 46.5458 16.5403 45.9597C15.9542 45.3737 15.625 44.5788 15.625 43.75V14.0625C15.625 13.2337 15.9542 12.4388 16.5403 11.8528C17.1263 11.2667 17.9212 10.9375 18.75 10.9375H31.25C32.0788 10.9375 32.8737 11.2667 33.4597 11.8528C34.0458 12.4388 34.375 13.2337 34.375 14.0625ZM31.25 14.0625H18.75V43.75H31.25V14.0625Z" fill="#EE4444"/>
</g>
</svg>
