<svg width="26" height="26" viewBox="0 0 26 26" fill="none" xmlns="http://www.w3.org/2000/svg">
<g id="ri:instagram-fill">
<path id="Vector" d="M14.1136 2.16784C14.9042 2.1648 15.6947 2.17275 16.4851 2.19167L16.6952 2.19925C16.9379 2.20792 17.1773 2.21875 17.4666 2.23175C18.6192 2.28592 19.4057 2.46792 20.0958 2.7355C20.8108 3.01067 21.4131 3.38334 22.0155 3.98567C22.5662 4.52691 22.9925 5.18161 23.2646 5.90425C23.5321 6.59434 23.7141 7.38192 23.7683 8.53459C23.7813 8.82275 23.7921 9.06325 23.8008 9.30592L23.8073 9.51609C23.8266 10.306 23.8349 11.0962 23.8322 11.8864L23.8333 12.6946V14.1138C23.836 14.9043 23.8277 15.6949 23.8084 16.4852L23.8019 16.6953C23.7932 16.938 23.7824 17.1774 23.7694 17.4667C23.7152 18.6193 23.5311 19.4058 23.2646 20.0959C22.9933 20.8193 22.567 21.4746 22.0155 22.0156C21.4738 22.5663 20.8187 22.9925 20.0958 23.2647C19.4057 23.5323 18.6192 23.7143 17.4666 23.7684C17.1773 23.7814 16.9379 23.7923 16.6952 23.8009L16.4851 23.8074C15.6947 23.8267 14.9042 23.835 14.1136 23.8323L13.3055 23.8334H11.8874C11.0968 23.8361 10.3063 23.8278 9.51597 23.8085L9.30581 23.802C9.04864 23.7927 8.79152 23.7818 8.53447 23.7695C7.38181 23.7153 6.59531 23.5312 5.90414 23.2647C5.18121 22.9931 4.5264 22.5668 3.98556 22.0156C3.43419 21.4742 3.00755 20.8191 2.73539 20.0959C2.46781 19.4058 2.28581 18.6193 2.23164 17.4667C2.21958 17.2096 2.20874 16.9525 2.19914 16.6953L2.19372 16.4852C2.17375 15.6949 2.16472 14.9043 2.16664 14.1138V11.8864C2.16362 11.0962 2.17156 10.3061 2.19047 9.51609L2.19806 9.30592C2.20672 9.06325 2.21756 8.82275 2.23056 8.53459C2.28472 7.38084 2.46672 6.59542 2.73431 5.90425C3.00663 5.18126 3.4341 4.52674 3.98664 3.98675C4.52711 3.43507 5.18152 3.00804 5.90414 2.7355C6.59531 2.46792 7.38072 2.28592 8.53447 2.23175L9.30581 2.19925L9.51597 2.19384C10.3059 2.17387 11.0961 2.16485 11.8863 2.16675L14.1136 2.16784ZM13 7.5845C12.2823 7.57435 11.5697 7.70695 10.9037 7.97458C10.2377 8.24221 9.63151 8.63954 9.12039 9.14348C8.60927 9.64742 8.20341 10.2479 7.92639 10.9101C7.64936 11.5722 7.50671 12.2829 7.50671 13.0006C7.50671 13.7184 7.64936 14.429 7.92639 15.0912C8.20341 15.7533 8.60927 16.3538 9.12039 16.8578C9.63151 17.3617 10.2377 17.7591 10.9037 18.0267C11.5697 18.2943 12.2823 18.4269 13 18.4168C14.4366 18.4168 15.8143 17.8461 16.8301 16.8302C17.846 15.8144 18.4166 14.4367 18.4166 13.0001C18.4166 11.5635 17.846 10.1857 16.8301 9.16993C15.8143 8.1541 14.4366 7.5845 13 7.5845ZM13 9.75117C13.4317 9.74322 13.8607 9.82137 14.2618 9.98106C14.663 10.1408 15.0283 10.3788 15.3365 10.6813C15.6446 10.9837 15.8894 11.3446 16.0565 11.7427C16.2237 12.1408 16.3098 12.5683 16.3098 13.0001C16.3099 13.4319 16.2239 13.8593 16.057 14.2575C15.89 14.6557 15.6453 15.0166 15.3373 15.3192C15.0292 15.6218 14.664 15.8599 14.2628 16.0198C13.8617 16.1796 13.4328 16.2579 13.0011 16.2501C12.1391 16.2501 11.3125 15.9077 10.703 15.2982C10.0935 14.6887 9.75106 13.862 9.75106 13.0001C9.75106 12.1381 10.0935 11.3115 10.703 10.702C11.3125 10.0925 12.1391 9.75009 13.0011 9.75009L13 9.75117ZM18.6875 5.9595C18.338 5.97349 18.0075 6.12217 17.7651 6.37439C17.5228 6.62661 17.3875 6.96282 17.3875 7.31259C17.3875 7.66236 17.5228 7.99856 17.7651 8.25078C18.0075 8.50301 18.338 8.65168 18.6875 8.66567C19.0466 8.66567 19.3911 8.523 19.645 8.26904C19.899 8.01509 20.0416 7.67065 20.0416 7.3115C20.0416 6.95236 19.899 6.60792 19.645 6.35396C19.3911 6.10001 19.0466 5.95734 18.6875 5.95734V5.9595Z" fill="#536279"/>
</g>
</svg>
