<svg width="50" height="50" viewBox="0 0 50 50" fill="none" xmlns="http://www.w3.org/2000/svg">
<g id="Frame">
<path id="Vector" d="M43.3334 16.2422C45.5016 20.7769 45.9132 25.9541 44.4888 30.7745C43.0643 35.5949 39.9048 39.7168 35.62 42.3447C31.3352 44.9726 26.2288 45.9201 21.2865 45.0045C16.3441 44.0888 11.9161 41.3749 8.85707 37.3865C5.79803 33.398 4.3248 28.4178 4.72173 23.4071C5.11866 18.3963 7.35759 13.7102 11.0064 10.2531C14.6553 6.79604 19.4553 4.8131 24.4802 4.68701C29.5051 4.56091 34.3986 6.30059 38.2162 9.5703L42.6439 5.14061C42.9371 4.84742 43.3348 4.68271 43.7494 4.68271C44.164 4.68271 44.5617 4.84742 44.8549 5.14061C45.1481 5.4338 45.3128 5.83145 45.3128 6.24608C45.3128 6.66071 45.1481 7.05836 44.8549 7.35155L26.1049 26.1015C25.8117 26.3947 25.414 26.5594 24.9994 26.5594C24.5848 26.5594 24.1871 26.3947 23.8939 26.1015C23.6008 25.8084 23.436 25.4107 23.436 24.9961C23.436 24.5814 23.6008 24.1838 23.8939 23.8906L29.308 18.4765C27.8407 17.5061 26.0889 17.0593 24.3361 17.2085C22.5833 17.3576 20.9321 18.0939 19.6498 19.2983C18.3676 20.5026 17.5293 22.1044 17.2707 23.8445C17.0122 25.5845 17.3484 27.3609 18.225 28.886C19.1017 30.4112 20.4674 31.5959 22.1011 32.2482C23.7348 32.9006 25.5408 32.9826 27.2269 32.4808C28.913 31.979 30.3803 30.9228 31.3914 29.4833C32.4025 28.0438 32.8982 26.3051 32.7982 24.5488C32.7867 24.3436 32.8157 24.1382 32.8835 23.9442C32.9514 23.7502 33.0568 23.5715 33.1937 23.4182C33.3307 23.265 33.4964 23.1402 33.6816 23.051C33.8668 22.9618 34.0677 22.91 34.2729 22.8984C34.6873 22.8751 35.0939 23.0174 35.4035 23.2939C35.5567 23.4308 35.6815 23.5966 35.7707 23.7818C35.8599 23.9669 35.9117 24.1678 35.9232 24.373C36.0657 26.8589 35.3557 29.319 33.9105 31.3467C32.4654 33.3744 30.3716 34.8483 27.9753 35.5248C25.579 36.2013 23.0236 36.04 20.7314 35.0674C18.4393 34.0948 16.5476 32.3692 15.369 30.1758C14.1904 27.9824 13.7955 25.4525 14.2495 23.0043C14.7036 20.5561 15.9794 18.3361 17.8661 16.7112C19.7528 15.0863 22.1375 14.1538 24.6259 14.0678C27.1144 13.9818 29.5578 14.7475 31.5521 16.2383L35.9955 11.7949C32.7393 9.09138 28.599 7.68624 24.3698 7.84935C20.1407 8.01246 16.1209 9.73233 13.0826 12.6786C10.0442 15.6249 8.20157 19.5899 7.90848 23.812C7.61539 28.0341 8.89254 32.2157 11.4946 35.5535C14.0967 38.8914 17.8403 41.1502 22.0064 41.8961C26.1724 42.642 30.4671 41.8224 34.0657 39.5947C37.6642 37.367 40.3129 33.8883 41.5029 29.8268C42.6929 25.7653 42.3404 21.4073 40.5131 17.5898C40.3344 17.2158 40.3116 16.7862 40.4496 16.3953C40.5877 16.0045 40.8754 15.6846 41.2494 15.5058C41.6234 15.3271 42.0531 15.3043 42.4439 15.4424C42.8347 15.5805 43.1547 15.8682 43.3334 16.2422Z" fill="#EE4444"/>
</g>
</svg>
