<svg width="26" height="26" viewBox="0 0 26 26" fill="none" xmlns="http://www.w3.org/2000/svg">
<g id="linkedin 1" clip-path="url(#clip0_581_2858)">
<g id="Layer 2">
<g id="linkedin">
<path id="Vector" d="M16.4117 9.09989C15.5814 9.09704 14.7587 9.25794 13.9906 9.57339C13.2225 9.88884 12.5242 10.3526 11.9356 10.9383C11.3469 11.5239 10.8796 12.2198 10.5602 12.9862C10.2408 13.7527 10.0756 14.5746 10.0742 15.4049V21.7749C10.0742 22.0335 10.1769 22.2815 10.3598 22.4643C10.5426 22.6472 10.7906 22.7499 11.0492 22.7499H13.3242C13.5828 22.7499 13.8308 22.6472 14.0136 22.4643C14.1965 22.2815 14.2992 22.0335 14.2992 21.7749V15.4049C14.299 15.1096 14.361 14.8175 14.4813 14.5478C14.6015 14.2781 14.7772 14.0367 14.997 13.8394C15.2167 13.6421 15.4756 13.4934 15.7567 13.4029C16.0378 13.3124 16.3348 13.2821 16.6284 13.3141C17.1549 13.3804 17.6388 13.6376 17.9882 14.037C18.3376 14.4363 18.5284 14.9501 18.5242 15.4807V21.7749C18.5242 22.0335 18.6269 22.2815 18.8098 22.4643C18.9926 22.6472 19.2406 22.7499 19.4992 22.7499H21.7742C22.0328 22.7499 22.2808 22.6472 22.4636 22.4643C22.6465 22.2815 22.7492 22.0335 22.7492 21.7749V15.4049C22.7478 14.5746 22.5827 13.7527 22.2633 12.9862C21.9439 12.2198 21.4765 11.5239 20.8879 10.9383C20.2992 10.3526 19.6009 9.88884 18.8328 9.57339C18.0648 9.25794 17.242 9.09704 16.4117 9.09989Z" fill="#536279"/>
<path id="Vector_2" d="M7.15 10.075H4.225C3.68652 10.075 3.25 10.5115 3.25 11.05V21.775C3.25 22.3134 3.68652 22.75 4.225 22.75H7.15C7.68848 22.75 8.125 22.3134 8.125 21.775V11.05C8.125 10.5115 7.68848 10.075 7.15 10.075Z" fill="#536279"/>
<path id="Vector_3" d="M5.6875 8.125C7.03369 8.125 8.125 7.03369 8.125 5.6875C8.125 4.34131 7.03369 3.25 5.6875 3.25C4.34131 3.25 3.25 4.34131 3.25 5.6875C3.25 7.03369 4.34131 8.125 5.6875 8.125Z" fill="#536279"/>
</g>
</g>
</g>
<defs>
<clipPath id="clip0_581_2858">
<rect width="26" height="26" fill="white"/>
</clipPath>
</defs>
</svg>
