<svg width="22" height="23" viewBox="0 0 22 23" fill="none" xmlns="http://www.w3.org/2000/svg">
<g id="Frame">
<path id="Vector" d="M14.4375 10.125C14.4375 10.3073 14.3651 10.4822 14.2361 10.6111C14.1072 10.7401 13.9323 10.8125 13.75 10.8125H8.25C8.06766 10.8125 7.8928 10.7401 7.76386 10.6111C7.63493 10.4822 7.5625 10.3073 7.5625 10.125C7.5625 9.94266 7.63493 9.76779 7.76386 9.63886C7.8928 9.50993 8.06766 9.4375 8.25 9.4375H13.75C13.9323 9.4375 14.1072 9.50993 14.2361 9.63886C14.3651 9.76779 14.4375 9.94266 14.4375 10.125ZM13.75 12.1875H8.25C8.06766 12.1875 7.8928 12.2599 7.76386 12.3889C7.63493 12.5178 7.5625 12.6927 7.5625 12.875C7.5625 13.0573 7.63493 13.2322 7.76386 13.3611C7.8928 13.4901 8.06766 13.5625 8.25 13.5625H13.75C13.9323 13.5625 14.1072 13.4901 14.2361 13.3611C14.3651 13.2322 14.4375 13.0573 14.4375 12.875C14.4375 12.6927 14.3651 12.5178 14.2361 12.3889C14.1072 12.2599 13.9323 12.1875 13.75 12.1875ZM19.9375 11.5C19.9378 13.043 19.5387 14.5599 18.7789 15.9029C18.0191 17.2459 16.9245 18.3693 15.6017 19.1638C14.2789 19.9582 12.773 20.3967 11.2304 20.4365C9.68791 20.4763 8.16136 20.116 6.79938 19.3908L3.8732 20.3662C3.63093 20.447 3.37095 20.4587 3.12239 20.4C2.87383 20.3414 2.64652 20.2146 2.46593 20.0341C2.28535 19.8535 2.15862 19.6262 2.09997 19.3776C2.04131 19.129 2.05303 18.8691 2.13383 18.6268L3.10922 15.7006C2.47169 14.502 2.11561 13.1739 2.068 11.8171C2.02039 10.4603 2.2825 9.11048 2.83445 7.87011C3.3864 6.62974 4.21366 5.53142 5.25346 4.6585C6.29326 3.78559 7.51825 3.16103 8.83546 2.83223C10.1527 2.50343 11.5275 2.47904 12.8555 2.7609C14.1836 3.04276 15.43 3.62346 16.5001 4.45894C17.5702 5.29441 18.4359 6.3627 19.0315 7.5827C19.6271 8.80271 19.9369 10.1424 19.9375 11.5ZM18.5625 11.5C18.5622 10.3399 18.295 9.19552 17.7816 8.15526C17.2682 7.115 16.5224 6.20679 15.6018 5.5009C14.6812 4.79501 13.6106 4.31035 12.4728 4.08444C11.3349 3.85852 10.1604 3.8974 9.03997 4.19806C7.91956 4.49872 6.88333 5.0531 6.01146 5.81832C5.13959 6.58354 4.45545 7.53907 4.01196 8.611C3.56847 9.68293 3.37753 10.8425 3.45391 12.0001C3.53029 13.1576 3.87193 14.282 4.45242 15.2864C4.50114 15.3707 4.53139 15.4644 4.54117 15.5613C4.55095 15.6582 4.54003 15.7561 4.50914 15.8484L3.4375 19.0625L6.65156 17.9909C6.72157 17.967 6.79502 17.9548 6.86898 17.9548C6.98973 17.955 7.10829 17.987 7.21273 18.0476C8.36241 18.7127 9.66699 19.0634 10.9952 19.0642C12.3235 19.0651 13.6285 18.7161 14.779 18.0524C15.9295 17.3886 16.8849 16.4336 17.5491 15.2834C18.2133 14.1331 18.5628 12.8282 18.5625 11.5Z" fill="#F0F2F5"/>
</g>
</svg>
