<svg width="22" height="23" viewBox="0 0 22 23" fill="none" xmlns="http://www.w3.org/2000/svg">
<g id="Frame">
<path id="Vector" d="M20.4239 9.63944L13.5489 2.76444C13.4528 2.66823 13.3303 2.60269 13.1969 2.57609C13.0636 2.54949 12.9253 2.56303 12.7997 2.615C12.674 2.66698 12.5666 2.75505 12.491 2.86807C12.4154 2.9811 12.375 3.11401 12.3749 3.24999V6.71757C10.1457 6.90835 7.68362 7.99975 5.65807 9.71764C3.21917 11.787 1.70065 14.4537 1.38182 17.226C1.35691 17.4415 1.40061 17.6594 1.50671 17.8487C1.61281 18.038 1.7759 18.1889 1.97278 18.2801C2.16965 18.3713 2.39028 18.3981 2.60325 18.3567C2.81623 18.3152 3.01071 18.2077 3.15901 18.0493C4.10432 17.043 7.46792 13.8607 12.3749 13.5805V17C12.375 17.136 12.4154 17.2689 12.491 17.3819C12.5666 17.4949 12.674 17.583 12.7997 17.635C12.9253 17.6869 13.0636 17.7005 13.1969 17.6739C13.3303 17.6473 13.4528 17.5817 13.5489 17.4855L20.4239 10.6105C20.5524 10.4817 20.6246 10.307 20.6246 10.125C20.6246 9.94294 20.5524 9.76832 20.4239 9.63944ZM13.7499 15.3405V12.875C13.7499 12.6927 13.6775 12.5178 13.5486 12.3889C13.4197 12.2599 13.2448 12.1875 13.0624 12.1875C10.6493 12.1875 8.29893 12.8174 6.07659 14.0609C4.94474 14.6971 3.89017 15.4618 2.93385 16.34C3.43229 14.2912 4.6887 12.343 6.54753 10.7661C8.54299 9.07397 10.9785 8.06249 13.0624 8.06249C13.2448 8.06249 13.4197 7.99005 13.5486 7.86112C13.6775 7.73219 13.7499 7.55732 13.7499 7.37499V4.9103L18.9655 10.125L13.7499 15.3405Z" fill="#F0F2F5"/>
</g>
</svg>
