<svg width="26" height="26" viewBox="0 0 26 26" fill="none" xmlns="http://www.w3.org/2000/svg">
<g id="image 3 (traced)">
<g id="Black">
<path id="Vector" d="M16.9355 2.51885C15.3156 2.8794 14.0309 3.84424 13.2641 5.28135C12.7359 6.26651 12.5328 7.60206 12.7258 8.74463L12.7613 8.9376H12.5633C12.4516 8.9376 12.0758 8.90206 11.7305 8.86143C8.42969 8.45518 5.4082 7.00284 3.03164 4.67706C2.70156 4.35713 2.30547 3.93565 2.14805 3.74776C1.98555 3.55987 1.83828 3.40245 1.81797 3.40245C1.68594 3.40245 1.25937 4.53487 1.14766 5.17471C0.802344 7.18565 1.5793 9.14581 3.21953 10.4001L3.3668 10.5118L3.11797 10.4814C2.47305 10.4103 1.76211 10.2021 1.26953 9.95323C1.15781 9.89737 1.05625 9.85167 1.03594 9.85167C1.01562 9.85167 1.01562 10.0548 1.03086 10.2985C1.14258 11.8829 1.91445 13.2946 3.17383 14.2341C3.66133 14.5997 4.14883 14.8485 4.71758 15.0364L5.14414 15.1735L4.84961 15.2345C4.5043 15.3056 3.47852 15.3259 3.13828 15.27C2.96562 15.2396 2.89453 15.2446 2.89453 15.2853C2.89453 15.4325 3.23984 16.1536 3.51406 16.5649C4.38242 17.8903 5.86523 18.7993 7.42422 18.9669L7.76953 19.0024L7.54102 19.1802C6.55078 19.9317 5.02227 20.6274 3.63086 20.9474C2.73203 21.1556 1.24922 21.2673 0.446875 21.1911C0.198047 21.1657 0 21.1607 0 21.181C0 21.2013 0.258984 21.3638 0.573828 21.5466C2.50859 22.6638 4.40781 23.2732 6.74375 23.5169C7.46484 23.5931 9.73477 23.5474 10.4102 23.4458C13.3301 22.9939 15.6406 22.0036 17.7277 20.3024C21.191 17.4841 23.3543 12.9392 23.3594 8.47042V7.72901L23.8113 7.36846C24.3852 6.90635 25.2891 5.9669 25.6953 5.40831C25.868 5.16964 26 4.96143 25.9848 4.9462C25.9746 4.93096 25.7918 4.98682 25.5887 5.06807C25.1723 5.23565 24.4867 5.44893 24.0957 5.53526C23.6539 5.63682 23.0953 5.72823 23.141 5.69268C23.1613 5.67237 23.3137 5.56065 23.4711 5.43878C23.8418 5.15948 24.3953 4.57549 24.6441 4.19971C24.8574 3.88487 25.2078 3.16377 25.2637 2.93526C25.2992 2.79815 25.284 2.80323 24.6187 3.13838C23.9484 3.47862 23.0293 3.81885 22.2828 4.00167L21.8969 4.10323L21.6734 3.87471C21.1758 3.3669 20.1652 2.80323 19.373 2.58995C18.8195 2.44268 17.4637 2.40206 16.9355 2.51885Z" fill="#536279"/>
</g>
</g>
</svg>
